<svg id="logosandtypes_com" xmlns="http://www.w3.org/2000/svg" viewBox="0 0 150 150"><path d="M0 0h150v150H0V0z" fill="none"/><path d="M30.2 14.2c-8.8 0-15.9 7.1-15.9 15.9v91c0 8.8 7.1 15.9 15.9 15.9s15.9-7.1 15.9-15.9v-91c0-8.8-7.1-15.9-15.9-15.9z" fill="#2c7ab1"/><path d="M121.2 14.2c-8.8 0-15.9 7.1-15.9 15.9v50.2c0 8.8 7.1 15.9 15.9 15.9s15.9-7.1 15.9-15.9V30.2c0-8.9-7.1-16-15.9-16z" fill="#faa61b"/><circle cx="121.2" cy="121.2" r="15.9" fill="#d793bf"/><circle cx="75.7" cy="75.7" r="15.9" fill="#f04f38"/></svg>